<svg width="20" height="20" viewBox="0 0 20 20" fill="none" xmlns="http://www.w3.org/2000/svg">
<path d="M14.9017 16.0809C13.436 17.0105 11.7356 17.5028 10 17.5001C5.50669 17.5001 1.76836 14.2667 0.984192 10.0001C1.34255 8.05899 2.31888 6.2858 3.76753 4.94506L1.16003 2.34006L2.33919 1.16089L18.8384 17.6609L17.6592 18.8392L14.9009 16.0809H14.9017ZM4.94586 6.12505C3.81336 7.15471 3.02446 8.50737 2.68586 10.0001C2.9461 11.1388 3.46858 12.201 4.21169 13.1022C4.95481 14.0034 5.89805 14.7187 6.96632 15.1911C8.03459 15.6636 9.1984 15.8801 10.3651 15.8235C11.5318 15.7669 12.6692 15.4387 13.6867 14.8651L11.9967 13.1751C11.2773 13.6282 10.4252 13.8235 9.58022 13.7288C8.73526 13.634 7.94756 13.255 7.34633 12.6537C6.74511 12.0525 6.36605 11.2648 6.27133 10.4199C6.17661 9.57489 6.37185 8.72281 6.82503 8.00339L4.94586 6.12505ZM10.7617 11.9401L8.06003 9.23839C7.91175 9.61584 7.87685 10.0284 7.95961 10.4253C8.04238 10.8223 8.23921 11.1865 8.52596 11.4733C8.81271 11.76 9.17691 11.9569 9.57391 12.0396C9.9709 12.1224 10.3834 12.0875 10.7609 11.9392L10.7617 11.9401ZM17.3392 13.8267L16.1467 12.6351C16.7038 11.8411 17.1004 10.946 17.3142 10.0001C17.0877 9.00816 16.6619 8.07268 16.0626 7.25047C15.4634 6.42826 14.7032 5.73649 13.8283 5.21723C12.9533 4.69796 11.9819 4.36203 10.9731 4.22986C9.96434 4.09769 8.9392 4.17204 7.96003 4.44839L6.64503 3.13339C7.68419 2.72506 8.81669 2.50006 10 2.50006C14.4934 2.50006 18.2317 5.73339 19.0159 10.0001C18.7605 11.3881 18.1866 12.698 17.3392 13.8267ZM9.76919 6.25672C10.2996 6.22394 10.831 6.30428 11.328 6.4924C11.825 6.68053 12.2764 6.97215 12.6522 7.34793C13.0279 7.72371 13.3196 8.17508 13.5077 8.6721C13.6958 9.16913 13.7761 9.70046 13.7434 10.2309L9.76836 6.25672H9.76919Z" fill="#4B5563"/>
</svg>
