<svg width="21" height="21" viewBox="0 0 21 21" fill="none" xmlns="http://www.w3.org/2000/svg">
<path d="M10.5 3C14.9933 3 18.7316 6.23333 19.5158 10.5C18.7325 14.7667 14.9933 18 10.5 18C6.00663 18 2.2683 14.7667 1.48413 10.5C2.26746 6.23333 6.00663 3 10.5 3ZM10.5 16.3333C12.1995 16.333 13.8486 15.7557 15.1773 14.696C16.5061 13.6363 17.4357 12.1569 17.8141 10.5C17.4343 8.84442 16.5041 7.36667 15.1755 6.30835C13.8469 5.25004 12.1986 4.67377 10.5 4.67377C8.80138 4.67377 7.15304 5.25004 5.82444 6.30835C4.49585 7.36667 3.5656 8.84442 3.1858 10.5C3.56421 12.1569 4.49386 13.6363 5.82258 14.696C7.15131 15.7557 8.80041 16.333 10.5 16.3333ZM10.5 14.25C9.5054 14.25 8.55158 13.8549 7.84831 13.1516C7.14505 12.4484 6.74996 11.4946 6.74996 10.5C6.74996 9.50544 7.14505 8.55161 7.84831 7.84835C8.55158 7.14509 9.5054 6.75 10.5 6.75C11.4945 6.75 12.4484 7.14509 13.1516 7.84835C13.8549 8.55161 14.25 9.50544 14.25 10.5C14.25 11.4946 13.8549 12.4484 13.1516 13.1516C12.4484 13.8549 11.4945 14.25 10.5 14.25ZM10.5 12.5833C11.0525 12.5833 11.5824 12.3638 11.9731 11.9731C12.3638 11.5824 12.5833 11.0525 12.5833 10.5C12.5833 9.94747 12.3638 9.41756 11.9731 9.02686C11.5824 8.63616 11.0525 8.41667 10.5 8.41667C9.94743 8.41667 9.41753 8.63616 9.02683 9.02686C8.63612 9.41756 8.41663 9.94747 8.41663 10.5C8.41663 11.0525 8.63612 11.5824 9.02683 11.9731C9.41753 12.3638 9.94743 12.5833 10.5 12.5833Z" fill="#4B5563"/>
</svg>
