<svg width="20" height="20" viewBox="0 0 20 20" fill="none" xmlns="http://www.w3.org/2000/svg">
<path d="M15.8334 17.5H4.16671C3.94569 17.5 3.73373 17.4122 3.57745 17.2559C3.42117 17.0996 3.33337 16.8877 3.33337 16.6666V9.16664H0.833374L9.43921 1.34331C9.59263 1.20371 9.79261 1.12634 10 1.12634C10.2075 1.12634 10.4074 1.20371 10.5609 1.34331L19.1667 9.16664H16.6667V16.6666C16.6667 16.8877 16.5789 17.0996 16.4226 17.2559C16.2664 17.4122 16.0544 17.5 15.8334 17.5ZM10.8334 15.8333H15V7.63081L10 3.08581L5.00004 7.63081V15.8333H9.16671V10.8333H10.8334V15.8333Z" fill="#4B5563"/>
</svg>
