<svg width="18" height="18" viewBox="0 0 18 18" fill="none" xmlns="http://www.w3.org/2000/svg">
<path d="M9.00002 17.3333C4.39752 17.3333 0.666687 13.6025 0.666687 8.99996C0.666687 4.39746 4.39752 0.666626 9.00002 0.666626C13.6025 0.666626 17.3334 4.39746 17.3334 8.99996C17.3334 13.6025 13.6025 17.3333 9.00002 17.3333ZM4.84419 14.2133C6.02381 15.1564 7.48975 15.669 9.00002 15.6666C10.6417 15.6666 12.1442 15.0733 13.3059 14.09C12.7631 13.5331 12.1142 13.0907 11.3975 12.789C10.6809 12.4872 9.91096 12.3323 9.13335 12.3333C8.32718 12.3324 7.52961 12.499 6.79124 12.8226C6.05288 13.1463 5.38984 13.6198 4.84419 14.2133V14.2133ZM3.68002 13.0166C4.3804 12.2734 5.22558 11.6814 6.16347 11.2772C7.10136 10.8731 8.11209 10.6653 9.13335 10.6666C10.1181 10.6653 11.0933 10.8586 12.0031 11.2353C12.913 11.612 13.7394 12.1647 14.435 12.8616C15.1484 11.8576 15.5697 10.6755 15.6522 9.44655C15.7346 8.21762 15.475 6.98986 14.9021 5.89951C14.3292 4.80915 13.4655 3.89881 12.4067 3.2695C11.3479 2.64018 10.1354 2.31649 8.90386 2.33434C7.67229 2.35218 6.46974 2.71086 5.42962 3.37059C4.3895 4.03032 3.55249 4.96529 3.01143 6.07179C2.47037 7.17829 2.24643 8.41305 2.36445 9.63908C2.48247 10.8651 2.93783 12.0345 3.68002 13.0175V13.0166ZM9.00002 9.83329C8.11597 9.83329 7.26812 9.4821 6.643 8.85698C6.01788 8.23186 5.66669 7.38401 5.66669 6.49996C5.66669 5.6159 6.01788 4.76806 6.643 4.14294C7.26812 3.51782 8.11597 3.16663 9.00002 3.16663C9.88408 3.16663 10.7319 3.51782 11.357 4.14294C11.9822 4.76806 12.3334 5.6159 12.3334 6.49996C12.3334 7.38401 11.9822 8.23186 11.357 8.85698C10.7319 9.4821 9.88408 9.83329 9.00002 9.83329ZM9.00002 8.16663C9.44205 8.16663 9.86597 7.99103 10.1785 7.67847C10.4911 7.36591 10.6667 6.94199 10.6667 6.49996C10.6667 6.05793 10.4911 5.63401 10.1785 5.32145C9.86597 5.00889 9.44205 4.83329 9.00002 4.83329C8.55799 4.83329 8.13407 5.00889 7.82151 5.32145C7.50895 5.63401 7.33335 6.05793 7.33335 6.49996C7.33335 6.94199 7.50895 7.36591 7.82151 7.67847C8.13407 7.99103 8.55799 8.16663 9.00002 8.16663Z" fill="#4B5563"/>
</svg>
