<svg width="20" height="20" viewBox="0 0 20 20" fill="none" xmlns="http://www.w3.org/2000/svg">
<path d="M17.5 11.035V16.6667H18.3333V18.3334H1.66668V16.6667H2.50001V11.035C1.98699 10.6926 1.56644 10.2288 1.27569 9.68482C0.984949 9.14084 0.833004 8.53349 0.833344 7.91669C0.833344 7.22752 1.02001 6.56335 1.36084 5.99752L3.62084 2.08335C3.69398 1.95667 3.79918 1.85148 3.92586 1.77834C4.05253 1.7052 4.19623 1.66669 4.34251 1.66669H15.6583C15.8046 1.66669 15.9483 1.7052 16.075 1.77834C16.2017 1.85148 16.3069 1.95667 16.38 2.08335L18.6317 5.98502C19.1288 6.81075 19.2886 7.7963 19.0779 8.7368C18.8671 9.67731 18.302 10.5004 17.5 11.035ZM15.8333 11.6434C15.2604 11.7076 14.6803 11.6388 14.1383 11.4422C13.5963 11.2457 13.1069 10.9266 12.7083 10.51C12.3585 10.8759 11.9382 11.1671 11.4727 11.3661C11.0072 11.565 10.5062 11.6676 10 11.6675C9.49391 11.6678 8.99301 11.5655 8.52753 11.3668C8.06205 11.1682 7.64165 10.8773 7.29168 10.5117C6.89303 10.9282 6.40366 11.247 5.86164 11.4434C5.31962 11.6399 4.73958 11.7086 4.16668 11.6442V16.6667H15.8333V11.6442V11.6434ZM4.82418 3.33335L2.79668 6.84419C2.59966 7.33097 2.59374 7.87421 2.78012 8.36517C2.9665 8.85613 3.33141 9.2586 3.80183 9.49201C4.27225 9.72543 4.81346 9.77259 5.31716 9.62403C5.82086 9.47548 6.24987 9.14219 6.51834 8.69085C6.79751 7.99335 7.78501 7.99335 8.06501 8.69085C8.21943 9.07787 8.48634 9.40969 8.83128 9.64344C9.17622 9.87719 9.58333 10.0021 10 10.0021C10.4167 10.0021 10.8238 9.87719 11.1687 9.64344C11.5137 9.40969 11.7806 9.07787 11.935 8.69085C12.2142 7.99335 13.2017 7.99335 13.4817 8.69085C13.5898 8.95706 13.7519 9.19802 13.9576 9.39858C14.1634 9.59915 14.4084 9.75498 14.6773 9.85629C14.9462 9.95759 15.2331 10.0022 15.5201 9.98726C15.807 9.97233 16.0878 9.8982 16.3447 9.76954C16.6016 9.64088 16.8291 9.46046 17.013 9.23963C17.1968 9.0188 17.333 8.76232 17.4129 8.48633C17.4928 8.21034 17.5148 7.92079 17.4775 7.6359C17.4401 7.351 17.3442 7.07691 17.1958 6.83085L15.175 3.33335H4.82501H4.82418Z" fill="#4B5563"/>
</svg>
