<svg width="21" height="21" viewBox="0 0 21 21" fill="none" xmlns="http://www.w3.org/2000/svg">
<path d="M17.278 11.2067C17.2421 11.1765 17.2058 11.1463 17.1704 11.116C16.7169 10.7191 16.2314 10.372 15.6767 10.1281C14.5354 9.62592 13.477 9.78343 12.4945 10.5305C11.8569 11.0157 11.3653 11.6324 10.9203 12.2905C10.3257 13.1697 9.87852 14.1295 9.39452 15.0694C9.07073 15.698 8.72156 16.3089 8.21094 16.8114C7.48538 17.5255 6.64373 17.9904 5.60376 18.0207C4.79416 18.0436 4.08371 17.7682 3.45731 17.2649C2.83091 16.7615 2.48295 16.0976 2.27132 15.33C2.15251 14.8998 2.1504 14.4715 2.18879 14.0467C2.21902 13.712 2.34358 13.3831 2.44667 13.0581C2.63622 12.458 2.98177 11.9344 3.31009 11.4041C4.2384 9.90586 5.1655 8.40698 6.0914 6.90749C6.49227 6.26113 6.88075 5.60752 7.30974 4.97901C7.8264 4.22321 8.47457 3.60316 9.33798 3.24733C10.3919 2.8123 11.3801 2.96437 12.3058 3.59953C12.9407 4.03578 13.409 4.62499 13.7987 5.28102C14.9588 7.23379 16.1181 9.18675 17.2768 11.1399C17.2858 11.1555 17.293 11.172 17.2983 11.1892C17.3116 11.2228 17.3092 11.2339 17.278 11.2067Z" fill="#47B475"/>
<path d="M14.5155 10.1955C15.2202 10.1873 15.8361 10.451 16.4089 10.8237C17.4066 11.4734 18.1479 12.3453 18.5744 13.4635C18.7335 13.8804 18.8486 14.31 18.8317 14.7671C18.8054 15.4894 18.6156 16.1533 18.1802 16.7343C17.6152 17.4901 16.8567 17.9406 15.9273 18.0663C14.9621 18.1969 14.1044 17.9049 13.3607 17.2848C12.7987 16.8162 12.347 16.2473 11.9555 15.6348C11.5519 15.0032 11.1755 14.3542 10.7855 13.7136C10.6616 13.5104 10.6552 13.5452 10.7855 13.3239C11.168 12.6712 11.5664 12.0309 12.0767 11.4679C12.6209 10.8666 13.2458 10.3884 14.066 10.2309C14.2123 10.2015 14.3653 10.2055 14.5155 10.1955Z" fill="#47B475"/>
</svg>
