<svg width="32" height="33" viewBox="0 0 32 33" fill="none" xmlns="http://www.w3.org/2000/svg">
<g clip-path="url(#clip0_2483_80201)">
<path d="M16 32.5C24.8366 32.5 32 25.3366 32 16.5C32 7.66344 24.8366 0.5 16 0.5C7.16344 0.5 0 7.66344 0 16.5C0 25.3366 7.16344 32.5 16 32.5Z" fill="#E5E7EC"/>
<path d="M16 14.6891C18.9064 14.6891 21.2625 12.333 21.2625 9.42656C21.2625 6.52016 18.9064 4.16406 16 4.16406C13.0936 4.16406 10.7375 6.52016 10.7375 9.42656C10.7375 12.333 13.0936 14.6891 16 14.6891Z" fill="#F6F7F8"/>
<path d="M16 28.835C14.0665 28.8349 12.185 28.209 10.6368 27.0509C9.08854 25.8928 7.95674 24.2647 7.41059 22.41C6.46809 19.2094 8.86747 16 12.2043 16H19.7956C23.1325 16 25.5318 19.2081 24.5893 22.4087C24.0434 24.2637 22.9117 25.8921 21.3635 27.0504C19.8152 28.2088 17.9336 28.8348 16 28.835Z" fill="white"/>
</g>
<defs>
<clipPath id="clip0_2483_80201">
<rect y="0.5" width="32" height="32" rx="16" fill="white"/>
</clipPath>
</defs>
</svg>
