<svg width="259" height="258" viewBox="0 0 259 258" fill="none" xmlns="http://www.w3.org/2000/svg">
<path d="M131.393 138.323C127.416 138.323 124.888 137.067 121.476 135.372C120.012 134.645 118.534 134.027 117.106 133.43C113.907 132.09 110.884 130.826 108.022 128.443C106.359 127.059 104.962 125.439 103.931 124.183C103.82 124.047 103.84 123.848 103.976 123.738C104.112 123.629 104.312 123.648 104.423 123.784C105.437 125.019 106.808 126.609 108.43 127.96C111.22 130.282 114.199 131.529 117.353 132.849C118.791 133.451 120.277 134.073 121.76 134.81C125.335 136.585 127.917 137.869 132.253 137.675C136.551 137.483 141.116 136.142 145.452 133.796C147.632 132.618 149.756 131.178 151.768 129.517C152 129.326 152.704 128.573 153.449 127.776C155.074 126.037 155.994 125.092 156.556 124.598C143.738 122.281 141.983 117.597 140.282 113.063C139.911 112.074 139.526 111.049 139.03 110.08C136.634 105.408 135.393 100.552 134.192 95.8576C132.54 89.3935 130.979 83.2889 126.567 79.1017C124.335 76.9827 122.184 76.7768 119.907 76.5597C117.577 76.337 115.169 76.1086 112.668 73.7598C108.398 69.7516 108.605 63.788 108.789 58.5279C108.813 57.8498 108.836 57.1773 108.85 56.5189C108.931 52.7039 108.345 43.5738 101.174 41.2025C99.7166 40.7203 98.1482 40.5201 96.6324 40.3255C95.6922 40.2057 94.7209 40.0802 93.7736 39.8899C87.8179 38.6929 82.5839 34.7807 79.7719 29.4247C76.5799 23.3427 69.5607 20.1085 60.9972 20.7711C53.0491 21.3872 43.7624 25.745 40.932 34.0912C39.2062 39.1779 40.335 45.494 43.9496 50.9867C44.046 51.1319 44.0049 51.3279 43.8574 51.4238C43.7099 51.5196 43.5142 51.4788 43.4178 51.3321C39.6969 45.6787 38.5426 39.1568 40.3293 33.8896C43.2533 25.2699 52.791 20.7739 60.9475 20.1423C69.772 19.4586 77.0209 22.8182 80.3335 29.1328C83.0561 34.321 88.127 38.1121 93.897 39.271C94.8215 39.4571 95.7815 39.5797 96.7104 39.6982C98.2574 39.8969 99.8556 40.1014 101.371 40.6019C108.944 43.1043 109.566 52.5742 109.483 56.5302C109.468 57.1914 109.444 57.8653 109.422 58.5477C109.233 63.9248 109.039 69.4866 113.101 73.2988C115.444 75.4981 117.641 75.7068 119.965 75.9295C122.249 76.1481 124.612 76.3722 127.002 78.6421C131.546 82.9548 133.128 89.1453 134.804 95.6997C135.997 100.362 137.229 105.182 139.593 109.791C140.106 110.792 140.496 111.834 140.875 112.84C142.545 117.296 144.273 121.903 157.436 124.109C157.436 124.109 157.438 124.109 157.439 124.109C157.612 124.139 157.728 124.301 157.7 124.473C157.675 124.621 157.55 124.727 157.406 124.735C156.971 124.931 155.061 126.975 153.914 128.203C153.089 129.086 152.438 129.784 152.174 130.001C150.131 131.687 147.972 133.149 145.757 134.348C141.337 136.74 136.678 138.108 132.283 138.302C131.978 138.316 131.682 138.323 131.393 138.323Z" fill="#D1D5DB"/>
<path d="M147.188 126.318C146.278 126.318 145.364 126.287 144.451 126.225C136.551 125.687 129.664 123.232 123.98 118.93C118.056 114.443 115.434 109.427 111.091 101.116C108.073 95.343 106.922 91.8254 105.808 88.4249C104.731 85.1358 103.714 82.0285 101.101 77.0997C98.9437 73.0309 94.9307 65.4587 87.5597 58.425C80.176 51.3786 70.5873 46.1862 59.8329 43.4074C59.6627 43.3637 59.562 43.1917 59.606 43.0225C59.65 42.8534 59.823 42.7519 59.9931 42.797C70.8524 45.6025 80.5376 50.8485 88.0007 57.9696C95.4454 65.0738 99.4896 72.7052 101.663 76.805C104.301 81.7818 105.326 84.913 106.412 88.2289C107.519 91.6055 108.663 95.0977 111.654 100.823C115.957 109.058 118.554 114.028 124.366 118.428C129.949 122.654 136.722 125.067 144.497 125.595C149.911 125.965 155.291 125.22 160.488 123.385C160.654 123.327 160.834 123.411 160.893 123.576C160.951 123.74 160.866 123.92 160.7 123.98C156.296 125.535 151.763 126.318 147.188 126.318Z" fill="#D1D5DB"/>
<path d="M153.918 40.3707C153.901 40.3707 153.883 40.3693 153.866 40.3665C153.693 40.3383 153.576 40.1747 153.605 40.0027C155.35 29.6587 153.372 23.6867 147.381 21.2068C146.044 20.6527 144.579 20.3609 143.162 20.0775C141.842 19.8139 140.478 19.5418 139.19 19.0582C135.153 17.5412 132.371 14.3465 129.68 11.2562C127.587 8.85239 125.421 6.36684 122.69 4.71452C119.535 2.8056 108.666 -2.8986 101.242 3.81081C97.2421 7.42563 96.5841 14.1802 96.0041 20.1381C95.824 21.9836 95.6553 23.7247 95.3958 25.3009C94.9874 27.7837 94.6953 30.0056 95.2412 32.0541C95.2866 32.2218 95.1859 32.3952 95.0157 32.4404C94.847 32.4855 94.6726 32.3854 94.6272 32.2162C94.0472 30.0479 94.3478 27.7555 94.7676 25.1994C95.0228 23.6444 95.1916 21.9117 95.3703 20.0775C95.9616 14.0053 96.6323 7.12252 100.814 3.34416C108.564 -3.6585 119.769 2.21065 123.019 4.17596C125.835 5.87904 128.033 8.40265 130.159 10.8431C132.798 13.8742 135.528 17.0069 139.414 18.4675C140.654 18.9327 141.992 19.2006 143.287 19.4586C144.733 19.7476 146.229 20.0465 147.625 20.6245C153.847 23.2003 156.008 29.5727 154.23 40.1085C154.204 40.2607 154.07 40.3707 153.918 40.3707Z" fill="#D1D5DB"/>
<path d="M128.981 29.8068C128.881 29.8068 128.783 29.7602 128.721 29.6742C122.805 21.3788 114.943 15.8931 109.389 12.7506C109.237 12.6646 109.183 12.4714 109.27 12.3206C109.356 12.1697 109.551 12.1161 109.702 12.2021C115.312 15.3757 123.254 20.9192 129.237 29.3091C129.338 29.4515 129.305 29.6489 129.162 29.749C129.108 29.7884 129.044 29.8068 128.981 29.8068Z" fill="#D1D5DB"/>
<path d="M249.859 63.7514C247.46 58.0994 241.985 54.6735 236.188 54.5804C235.995 52.6969 235.523 50.8105 234.745 48.9749C230.543 39.075 219.064 34.4353 209.107 38.6126C208.938 38.6831 208.775 38.7606 208.61 38.8354C208.596 37.9923 208.424 37.1379 208.074 36.3146C206.609 32.8647 202.61 31.2476 199.139 32.704C199.06 32.7378 198.982 32.7745 198.904 32.8097C198.752 31.8101 198.474 30.8148 198.061 29.8406C195.394 23.5556 188.107 20.6104 181.787 23.2623C181.241 23.4907 180.723 23.7557 180.23 24.0504C180.198 23.9715 180.169 23.8911 180.136 23.8121C177.469 17.5271 170.181 14.5819 163.861 17.2338C160.94 18.459 158.739 20.6668 157.476 23.3046C154.712 19.8477 149.877 18.4872 145.584 20.2876C142.395 21.6255 140.255 24.393 139.594 27.5242C138.167 27.6779 136.737 28.036 135.346 28.6197C130.545 30.6343 127.337 34.83 126.401 39.5586C125.529 39.7517 124.661 40.021 123.809 40.3791C119.725 42.0921 116.794 45.384 115.434 49.2399C114.437 49.1878 113.352 49.3795 112.371 49.7912C108.901 51.2476 107.214 55.2501 108.677 58.6999C108.677 58.7014 108.678 58.7028 108.678 58.7042C103.721 64.1039 102.004 72.1836 105.084 79.4443C107.161 84.3378 111.047 87.9301 115.617 89.8235C119.09 97.9075 127.442 102.447 135.811 101.508C143.452 111.646 157.362 128.322 171.931 137.008C175.96 145.619 186.157 149.579 195.028 145.856C195.386 145.705 195.736 145.542 196.079 145.371C200.968 150.754 208.62 153.081 215.852 151.07C221.076 158.229 230.741 161.144 239.289 157.558C245.964 154.758 250.256 148.705 251.099 142.038C254.04 140.355 255.326 136.719 253.973 133.531C253.65 132.77 253.203 132.099 252.667 131.529C257.171 128.218 258.992 122.162 256.717 116.804C256.663 116.677 256.604 116.553 256.547 116.429C258.793 114.569 259.659 111.401 258.464 108.583C257.741 106.878 256.398 105.622 254.807 104.962C256.513 101.789 256.818 97.9075 255.3 94.3336C254.081 91.4617 251.896 89.2892 249.281 88.0274C249.488 85.6701 249.139 83.2311 248.149 80.9006C247.924 80.3705 247.67 79.863 247.393 79.3738C251.008 75.1908 252.162 69.1778 249.859 63.7514Z" fill="#D1D5DB"/>
<path d="M125.638 77.2844C125.638 77.2844 139.864 106.775 130.074 116.503C120.284 126.231 70.3406 167.945 70.3406 167.945L98.1936 214.632C98.1936 214.632 135.241 151.164 157.945 144.198C180.649 137.232 216.245 140.028 216.245 140.028L213.32 133.135C213.32 133.135 179.521 135.673 179.777 129.854C180.034 124.036 196.71 116.175 208.267 113.344C208.739 104.208 203.4 92.3076 203.4 92.3076C203.4 92.3076 174.182 123.896 172.232 115.201C170.281 106.505 187.253 82.952 187.253 82.952L177.737 80.3142C177.737 80.3142 160.927 121.354 152.45 113.682C143.975 106.01 164.665 82.3387 165.661 79.9025C162.484 77.1998 151.235 93.7386 151.384 85.8915C151.533 78.0443 153.018 69.9265 153.018 69.9265L137.245 67.6059C137.245 67.6059 146.57 93.6766 141.828 94.8016C137.086 95.9267 131.108 73.6414 131.108 73.6414L125.638 77.2844Z" fill="white"/>
<path d="M98.1935 214.948C98.0815 214.948 97.978 214.889 97.9213 214.793L70.0682 168.106C69.9888 167.974 70.0186 167.803 70.1377 167.703C70.6369 167.286 120.183 125.887 129.851 116.279C139.369 106.82 125.495 77.713 125.353 77.4198C125.285 77.2788 125.332 77.1082 125.462 77.0208L130.933 73.3764C131.018 73.32 131.126 73.3073 131.222 73.3425C131.319 73.3778 131.391 73.4581 131.417 73.5568C133.057 79.6727 138.114 95.3557 141.757 94.4915C142.039 94.4238 142.262 94.2363 142.436 93.9177C144.759 89.667 137.028 67.9288 136.948 67.7088C136.912 67.6045 136.931 67.4889 137.002 67.4029C137.073 67.3169 137.184 67.2746 137.294 67.2915L153.067 69.6121C153.152 69.6248 153.229 69.6713 153.279 69.7404C153.328 69.8095 153.348 69.8969 153.332 69.9801C153.318 70.0604 151.852 78.1642 151.704 85.8943C151.686 86.8896 151.858 87.4987 152.201 87.6552C153.142 88.0852 155.652 85.8478 157.869 83.8754C160.983 81.1051 164.203 78.2403 165.871 79.6586C165.974 79.7474 166.01 79.8912 165.959 80.0167C165.753 80.5186 164.868 81.7268 163.528 83.554C158.29 90.699 146.024 107.431 152.667 113.444C153.522 114.218 154.47 114.474 155.569 114.228C164.212 112.282 177.314 80.5101 177.446 80.1901C177.507 80.0421 177.669 79.9617 177.825 80.0054L187.341 82.6446C187.44 82.6728 187.521 82.7461 187.555 82.8434C187.589 82.9407 187.574 83.0478 187.514 83.1324C187.345 83.3665 170.648 106.67 172.544 115.127C172.696 115.801 173.022 116.196 173.544 116.335C178.111 117.549 194.919 101.009 203.169 92.0891C203.242 92.0102 203.349 91.9749 203.454 91.9918C203.559 92.0088 203.65 92.0778 203.692 92.1751C203.746 92.295 209.057 104.252 208.586 113.356C208.579 113.496 208.481 113.613 208.345 113.647C197.265 116.361 180.346 124.214 180.096 129.864C180.081 130.224 180.23 130.549 180.552 130.86C184.756 134.909 213.012 132.839 213.297 132.818C213.434 132.808 213.561 132.886 213.613 133.01L216.538 139.902C216.581 140.004 216.568 140.121 216.503 140.21C216.438 140.298 216.331 140.348 216.221 140.339C215.866 140.311 180.425 137.628 158.04 144.497C135.713 151.347 98.8402 214.156 98.4701 214.789C98.4133 214.886 98.3098 214.945 98.1978 214.945C98.195 214.948 98.195 214.948 98.1935 214.948ZM70.7503 168.014L98.1921 214.01C99.8143 211.271 108.47 196.82 119.298 181.842C135.397 159.572 148.368 146.805 157.852 143.895C178.866 137.448 211.266 139.369 215.751 139.674L213.117 133.465C210.208 133.674 184.358 135.406 180.109 131.314C179.655 130.877 179.438 130.38 179.463 129.837C179.726 123.851 196.432 115.966 207.964 113.091C208.285 105.155 204.241 95.0907 203.305 92.8758C200.369 96.0212 180.519 117.019 174.002 117.022C173.778 117.022 173.571 116.998 173.381 116.946C172.62 116.743 172.131 116.178 171.926 115.265C170.078 107.026 184.512 86.2665 186.737 83.1324L177.927 80.6906C176.564 83.9783 164.345 112.901 155.709 114.845C154.413 115.137 153.246 114.823 152.241 113.912C145.176 107.517 157.225 91.0811 163.015 83.1832C164.064 81.7508 164.925 80.5778 165.254 80.0068C163.894 79.3625 160.926 82.0017 158.291 84.3463C155.588 86.7515 153.253 88.831 151.936 88.229C151.329 87.9527 151.045 87.1843 151.069 85.8816C151.201 78.9734 152.378 71.7748 152.652 70.1873L137.721 67.9908C138.904 71.3674 145.274 90.0434 142.993 94.218C142.731 94.6973 142.365 94.9948 141.904 95.1048C141.768 95.1372 141.631 95.1527 141.493 95.1527C136.921 95.1541 131.903 77.7285 130.919 74.1447L126.042 77.393C126.678 78.7535 129.759 85.5165 131.835 93.1606C134.963 104.676 134.446 112.604 130.301 116.723C120.93 126.037 74.2685 165.075 70.7503 168.014Z" fill="#D1D5DB"/>
<path d="M168.691 68.6801C168.66 67.8878 168.488 67.087 168.159 66.3116C166.882 63.3016 163.673 61.6888 160.57 62.2978C160.502 60.685 160.15 59.058 159.482 57.4832C156.485 50.4214 148.297 47.1125 141.194 50.0915C136.062 52.2443 132.901 57.0927 132.673 62.2809C128.993 59.2244 123.766 58.2685 119.044 60.2493C112.864 62.842 109.705 69.5571 111.428 75.8181C110.35 77.6072 110.116 79.8644 110.994 81.934C112.458 85.3811 116.452 86.9953 119.919 85.5418C120.238 85.4078 120.54 85.2528 120.828 85.0794C123.554 85.7927 126.529 85.6532 129.328 84.4788C134.073 82.4881 137.036 78.0654 137.378 73.2847C141.275 76.7021 146.941 77.8102 152.049 75.6673C153.685 74.9807 155.118 74.0178 156.323 72.8603C157.435 74.4252 159.148 75.4206 161.002 75.6631C161.034 76.4554 161.205 77.2562 161.534 78.0316C162.998 81.4786 166.992 83.0929 170.459 81.6394C173.926 80.1844 175.55 76.2129 174.088 72.7659C173.113 70.465 171.011 68.9833 168.691 68.6801Z" fill="#D1D5DB"/>
<path d="M117.273 86.3934C116.364 86.3934 115.455 86.2185 114.587 85.8675C112.823 85.1541 111.444 83.8007 110.703 82.0567C110.635 81.896 110.71 81.7113 110.872 81.6436C111.034 81.5759 111.219 81.6507 111.288 81.8114C111.963 83.4003 113.219 84.6339 114.826 85.2824C116.432 85.9323 118.198 85.9197 119.797 85.25C120.095 85.1259 120.386 84.9765 120.664 84.8087C120.737 84.7636 120.827 84.7509 120.91 84.7735C123.688 85.5009 126.557 85.2979 129.206 84.187C133.705 82.2992 136.716 78.112 137.062 73.2607C137.07 73.1409 137.147 73.0366 137.257 72.9915C137.368 72.9463 137.497 72.9675 137.588 73.0464C141.497 76.4752 147.126 77.3887 151.926 75.3755C153.483 74.7227 154.888 73.7993 156.102 72.6319C156.168 72.5685 156.259 72.5347 156.353 72.5445C156.445 72.553 156.529 72.6009 156.582 72.6771C157.623 74.1405 159.248 75.1147 161.045 75.3487C161.198 75.3684 161.314 75.4953 161.321 75.649C161.351 76.4272 161.523 77.1871 161.828 77.9061C163.22 81.1868 167.039 82.7292 170.337 81.3447C171.935 80.6737 173.176 79.4245 173.829 77.8272C173.895 77.6651 174.08 77.5875 174.243 77.6538C174.406 77.72 174.484 77.9033 174.417 78.0655C173.699 79.8193 172.338 81.1911 170.584 81.927C166.962 83.4468 162.771 81.7536 161.243 78.1515C160.943 77.4423 160.761 76.6979 160.703 75.9352C158.956 75.6419 157.375 74.7086 156.285 73.3312C155.075 74.4365 153.695 75.3191 152.175 75.9563C147.341 77.9837 141.704 77.1744 137.64 73.9135C137.079 78.7422 133.987 82.8659 129.454 84.7678C126.716 85.9168 123.753 86.1396 120.881 85.4163C120.611 85.5728 120.332 85.7124 120.047 85.8308C119.152 86.2058 118.213 86.3934 117.273 86.3934Z" fill="white"/>
<path d="M218.48 123.762C216.906 121.463 213.871 120.507 211.194 121.629C208.142 122.91 206.713 126.406 208 129.44C208.27 130.073 208.636 130.635 209.075 131.118C207.559 134.364 207.374 138.212 208.884 141.769C211.723 148.459 219.481 151.594 226.209 148.772C232.938 145.949 236.092 138.237 233.253 131.546C230.767 125.691 224.513 122.56 218.48 123.762Z" fill="#D1D5DB"/>
<path d="M220.841 150.227C215.556 150.227 210.526 147.133 208.346 141.997C206.891 138.569 206.934 134.673 208.457 131.277C208.046 130.793 207.712 130.252 207.463 129.667C206.389 127.138 207.077 124.239 209.173 122.456C209.306 122.343 209.506 122.357 209.621 122.491C209.735 122.623 209.719 122.822 209.587 122.936C207.701 124.541 207.083 127.148 208.049 129.423C208.297 130.007 208.64 130.542 209.067 131.012C209.152 131.106 209.173 131.242 209.119 131.356C207.588 134.635 207.52 138.423 208.932 141.752C211.7 148.271 219.285 151.336 225.842 148.587C229.444 147.076 232.135 144.066 233.224 140.328C233.273 140.16 233.448 140.064 233.617 140.112C233.786 140.16 233.882 140.337 233.834 140.503C232.691 144.424 229.868 147.583 226.089 149.168C224.373 149.885 222.593 150.225 220.841 150.227Z" fill="white"/>
<path d="M213.627 92.2977C214.925 89.6825 215.119 86.5442 213.889 83.647C211.928 79.0256 206.999 76.5485 202.236 77.4804C202.087 76.3201 201.782 75.1612 201.303 74.0319C198.464 67.3422 190.706 64.2068 183.977 67.0293C177.249 69.8517 174.095 77.5636 176.934 84.2546C179.773 90.9443 187.531 94.0798 194.26 91.2573C194.306 91.2375 194.35 91.215 194.397 91.1953C194.462 91.3757 194.532 91.5562 194.608 91.7352C196.008 95.0342 198.921 97.2406 202.205 97.8934C199.688 101.474 199.017 106.223 200.852 110.545C203.691 117.235 211.449 120.37 218.178 117.548C224.906 114.725 228.06 107.014 225.221 100.323C223.17 95.4953 218.562 92.5205 213.627 92.2977Z" fill="#D1D5DB"/>
<path d="M212.829 118.415C211.103 118.415 209.376 118.082 207.728 117.417C204.377 116.062 201.758 113.492 200.351 110.179C198.592 106.034 199.016 101.371 201.473 97.6114C198.169 96.8036 195.436 94.4985 194.108 91.3687C194.074 91.2883 194.041 91.208 194.009 91.1262C187.167 93.8923 179.313 90.6722 176.435 83.8867C174.267 78.7803 175.513 72.7715 179.535 68.934C179.661 68.8127 179.862 68.8169 179.984 68.9438C180.105 69.0693 180.102 69.2695 179.974 69.3907C176.141 73.0479 174.954 78.7746 177.019 83.6428C179.786 90.1619 187.372 93.2283 193.929 90.4762L194.064 90.4156C194.145 90.3804 194.235 90.3804 194.316 90.4156C194.397 90.4509 194.459 90.5171 194.489 90.5989C194.553 90.7737 194.62 90.95 194.693 91.1234C196.002 94.2053 198.755 96.4384 202.06 97.0954C202.165 97.1166 202.253 97.1885 202.293 97.2872C202.332 97.3859 202.32 97.4986 202.259 97.5861C199.698 101.23 199.204 105.848 200.938 109.935C202.279 113.093 204.776 115.543 207.969 116.833C211.163 118.125 214.671 118.101 217.847 116.768C219.452 116.094 220.877 115.129 222.081 113.898C222.203 113.772 222.405 113.77 222.531 113.892C222.657 114.013 222.66 114.214 222.537 114.339C221.273 115.632 219.778 116.644 218.094 117.352C216.398 118.06 214.614 118.415 212.829 118.415Z" fill="white"/>
<path d="M224.856 137.028C227.405 135.851 228.511 132.843 227.328 130.309C226.144 127.775 223.119 126.675 220.57 127.852C218.021 129.028 216.915 132.036 218.098 134.57C219.282 137.104 222.307 138.204 224.856 137.028Z" fill="white"/>
<path d="M234.68 120.763C235.328 119.137 234.528 117.298 232.893 116.654C231.259 116.01 229.409 116.805 228.761 118.431C228.113 120.056 228.913 121.895 230.548 122.539C232.182 123.183 234.033 122.388 234.68 120.763Z" fill="white"/>
<path d="M123.551 65.3212C124.027 62.7979 122.356 60.3687 119.818 59.8953C117.28 59.4219 114.836 61.0837 114.36 63.6069C113.884 66.1302 115.555 68.5594 118.093 69.0328C120.631 69.5062 123.075 67.8444 123.551 65.3212Z" fill="white"/>
<path d="M126.164 79.9959C127.547 79.1534 127.982 77.3551 127.135 75.9792C126.288 74.6034 124.479 74.171 123.095 75.0135C121.711 75.856 121.276 77.6543 122.124 79.0301C122.971 80.406 124.78 80.8383 126.164 79.9959Z" fill="white"/>
<path d="M94.1153 217.729C102.611 214.165 104.658 199.87 98.6864 185.802C92.715 171.734 80.9869 163.22 72.4909 166.784C63.995 170.349 61.9484 184.643 67.9198 198.711C73.8912 212.779 85.6193 221.294 94.1153 217.729Z" fill="white"/>
<path d="M90.0213 218.86C82.0392 218.86 72.7213 210.852 67.6235 198.843C64.7137 191.987 63.5906 184.859 64.4627 178.773C65.3433 172.629 68.1496 168.271 72.3654 166.502C76.5812 164.732 81.679 165.774 86.7201 169.436C91.713 173.062 96.0664 178.834 98.9762 185.69C101.886 192.546 103.009 199.674 102.137 205.76C101.256 211.904 98.4501 216.262 94.2343 218.031C92.8985 218.592 91.4819 218.86 90.0213 218.86ZM76.6266 166.293C75.2199 166.293 73.8727 166.554 72.6121 167.084C68.609 168.763 65.9388 172.946 65.0909 178.862C64.2358 184.837 65.3419 191.845 68.2077 198.598C74.101 212.483 85.6651 220.941 93.9876 217.45C97.9907 215.771 100.661 211.588 101.509 205.673C102.364 199.698 101.258 192.689 98.392 185.936C95.5261 179.185 91.2479 173.506 86.3458 169.946C83.0205 167.531 79.6839 166.293 76.6266 166.293Z" fill="#D1D5DB"/>
<path d="M88.2912 214.711C86.0578 214.711 83.5933 213.775 81.1117 211.951C80.9714 211.846 80.9416 211.649 81.0451 211.509C81.15 211.37 81.3485 211.34 81.4889 211.443C84.8724 213.931 88.192 214.691 90.8338 213.583C93.6613 212.397 95.4623 209.223 95.9047 204.645C96.3542 199.997 95.3474 194.483 93.0714 189.118C91.4478 185.293 89.2839 181.82 86.8137 179.075C86.6974 178.945 86.7087 178.745 86.8392 178.629C86.9696 178.513 87.171 178.523 87.2873 178.654C89.8029 181.452 92.0051 184.986 93.6557 188.874C95.9727 194.335 96.9951 199.957 96.5371 204.707C96.0706 209.527 94.1335 212.887 91.0805 214.167C90.2098 214.531 89.2725 214.711 88.2912 214.711Z" fill="#D1D5DB"/>
<path d="M71.499 175.221C71.4196 175.221 71.3402 175.192 71.2778 175.133C71.1516 175.011 71.1488 174.811 71.2707 174.686C71.9641 173.972 72.7596 173.425 73.6374 173.057C75.0866 172.45 76.7018 172.345 78.4389 172.747C78.609 172.787 78.7154 172.956 78.6757 173.126C78.636 173.296 78.4644 173.401 78.2942 173.362C76.6904 172.991 75.2057 173.084 73.8841 173.64C73.0872 173.974 72.3612 174.474 71.7273 175.126C71.6649 175.189 71.5813 175.221 71.499 175.221Z" fill="#D1D5DB"/>
<path d="M256.986 200.612C263.92 175.331 245.944 148.439 216.836 140.547C187.728 132.655 158.509 146.752 151.575 172.033C144.641 197.314 162.617 224.206 191.725 232.098C220.834 239.99 250.052 225.893 256.986 200.612Z" fill="white"/>
<path d="M208.06 234.619C202.618 234.619 197.092 233.886 191.635 232.406C162.405 224.481 144.294 197.363 151.264 171.955C154.641 159.639 163.337 149.56 175.746 143.572C188.141 137.592 202.761 136.412 216.913 140.249C246.143 148.174 264.254 175.292 257.284 200.7C253.907 213.016 245.211 223.095 232.802 229.083C225.186 232.757 216.73 234.619 208.06 234.619ZM200.486 138.667C191.91 138.667 183.551 140.509 176.023 144.14C163.781 150.046 155.204 159.984 151.876 172.121C144.999 197.194 162.91 223.964 191.802 231.797C205.805 235.594 220.268 234.428 232.525 228.515C244.767 222.609 253.344 212.671 256.672 200.534C263.549 175.461 245.638 148.691 216.746 140.858C211.343 139.393 205.872 138.667 200.486 138.667Z" fill="#D1D5DB"/>
<path d="M212.903 130.795C213.235 136.042 213.334 143.954 211.549 149.183C211.549 149.183 221.153 140.332 236.958 145.37C236.958 145.37 221.52 150.009 216.55 155.047C216.55 155.047 229.655 160.29 227.545 172.111C227.545 172.111 217.429 159.416 208.687 158.924C199.945 158.432 191.363 160.799 185.61 171.445C185.61 171.445 186.329 154.364 199.033 153.49C199.033 153.49 194.942 146.372 181.741 147.676C181.741 147.676 192.625 138.984 201.238 147.517C201.238 147.517 199.356 137.82 190.408 133.949C190.408 133.949 203.963 135.309 206.775 144.235C206.775 144.235 207.178 137.655 205.169 132.588C204.456 130.788 205.296 128.748 207.053 127.916L207.568 127.672C209.959 126.541 212.737 128.17 212.903 130.795Z" fill="white"/>
<path d="M227.545 172.426C227.45 172.426 227.358 172.384 227.296 172.306C227.195 172.181 217.167 159.716 208.668 159.238C198.009 158.638 190.769 162.564 185.889 171.594C185.82 171.724 185.668 171.789 185.526 171.749C185.383 171.71 185.286 171.578 185.294 171.432C185.301 171.261 186.149 154.555 198.461 153.224C197.317 151.738 192.704 146.911 181.774 147.989C181.634 148.003 181.502 147.923 181.449 147.795C181.397 147.665 181.435 147.517 181.544 147.429C181.652 147.343 192.082 139.183 200.659 146.548C199.888 143.977 197.265 137.256 190.284 134.236C190.14 134.174 190.064 134.018 190.104 133.867C190.143 133.716 190.286 133.616 190.442 133.633C190.971 133.686 202.757 134.957 206.49 142.654C206.479 140.414 206.252 136.172 204.875 132.702C204.107 130.764 205.004 128.535 206.919 127.63L207.433 127.386C208.65 126.811 210.068 126.873 211.228 127.551C212.389 128.23 213.134 129.436 213.219 130.775C213.551 136.01 213.615 143.148 212.155 148.296C214.828 146.328 223.857 140.864 237.055 145.068C237.187 145.11 237.276 145.233 237.274 145.371C237.273 145.509 237.182 145.63 237.049 145.67C236.899 145.715 222.286 150.146 217.106 154.947C219.393 156.011 229.765 161.477 227.857 172.165C227.836 172.288 227.744 172.385 227.623 172.416C227.598 172.423 227.572 172.426 227.545 172.426ZM206.682 158.55C207.344 158.55 208.018 158.57 208.707 158.608C216.54 159.049 225.252 168.87 227.341 171.361C228.758 160.415 216.558 155.389 216.432 155.339C216.334 155.299 216.262 155.213 216.241 155.11C216.219 155.007 216.251 154.9 216.324 154.824C220.621 150.469 232.371 146.492 235.883 145.372C221.025 141.112 211.856 149.328 211.764 149.414C211.658 149.513 211.497 149.526 211.375 149.447C211.254 149.368 211.201 149.217 211.248 149.08C212.988 143.988 212.935 136.335 212.586 130.813C212.514 129.667 211.902 128.676 210.908 128.094C209.915 127.513 208.749 127.462 207.708 127.954L207.194 128.198C205.579 128.962 204.821 130.838 205.468 132.47C207.48 137.544 207.111 143.98 207.096 144.25C207.086 144.402 206.97 144.527 206.818 144.545C206.668 144.563 206.523 144.472 206.476 144.326C204.406 137.755 196.22 135.361 192.382 134.587C199.814 138.915 201.536 147.362 201.553 147.453C201.58 147.59 201.513 147.727 201.39 147.792C201.266 147.857 201.116 147.834 201.017 147.737C194.144 140.929 185.665 145.449 182.879 147.263C195.214 146.462 199.145 153.042 199.312 153.331C199.366 153.425 199.368 153.541 199.317 153.637C199.265 153.733 199.168 153.795 199.058 153.803C188.951 154.498 186.592 165.895 186.071 169.999C190.689 162.312 197.459 158.55 206.682 158.55Z" fill="#D1D5DB"/>
<path d="M208.914 133.44C208.386 133.44 207.759 133.348 207.015 133.117C206.848 133.065 206.754 132.888 206.807 132.722C206.859 132.556 207.036 132.463 207.204 132.515C210.16 133.43 210.864 131.904 210.892 131.838C210.961 131.68 211.146 131.604 211.307 131.672C211.468 131.739 211.544 131.921 211.479 132.081C211.451 132.15 210.891 133.44 208.914 133.44Z" fill="#D1D5DB"/>
<path d="M245.561 201.35C245.068 201.35 244.58 201.178 244.108 200.834C240.137 197.937 237.964 182.441 239.55 178.468C240.563 175.932 241.944 175.424 242.914 175.453C245.347 175.512 248.224 178.983 249.909 183.895C251.811 189.435 252.116 196.751 247.267 200.668C246.704 201.122 246.13 201.35 245.561 201.35ZM242.847 176.083C241.746 176.083 240.835 176.964 240.14 178.702C238.643 182.451 240.778 197.621 244.484 200.326C245.261 200.895 246.041 200.847 246.866 200.178C251.462 196.465 251.141 189.438 249.308 184.099C247.731 179.507 245.035 176.136 242.897 176.084C242.881 176.083 242.864 176.083 242.847 176.083ZM247.067 200.422H247.07H247.067Z" fill="#D1D5DB"/>
<path d="M114.572 254.793C100.274 249.542 98.7466 240.801 98.8771 236.758C98.9125 235.668 98.1581 234.733 97.0847 234.511C88.914 232.819 84.9846 214.704 95.5901 205.966C105.521 197.783 108.186 189.761 108.186 189.761C116.147 168.932 121.381 163.86 134.094 158.794C146.808 153.729 157.233 169.488 157.233 169.488C157.233 169.488 172.299 170.256 177.786 183.868C177.786 183.868 187.168 186.437 188.015 196.321C188.861 206.207 169.36 240.618 134.182 256.716C129.956 258.65 126.343 257.614 123.257 254.294C123.256 254.294 118.137 256.101 114.572 254.793Z" fill="white"/>
<path d="M130.095 257.999C127.606 257.999 125.288 256.883 123.164 254.657C122.165 254.983 117.735 256.29 114.461 255.089C99.7491 249.688 98.4389 240.463 98.5594 236.748C98.5892 235.822 97.9411 235.011 97.0194 234.821C93.6062 234.115 90.7106 230.572 89.4627 225.577C88.0319 219.848 88.7253 211.212 95.3873 205.723C105.135 197.69 107.859 189.741 107.884 189.662C115.956 168.543 121.218 163.583 133.975 158.501C139.284 156.385 145.043 157.593 150.627 161.994C154.387 164.958 156.913 168.471 157.408 169.185C159.05 169.323 172.785 170.855 178.022 183.611C179.258 184.009 187.533 187.009 188.328 196.296C189.209 206.576 169.18 241.048 134.312 257.003C132.86 257.666 131.452 257.999 130.095 257.999ZM123.256 253.978C123.342 253.978 123.427 254.013 123.488 254.079C126.639 257.47 130.095 258.237 134.047 256.428C149.24 249.476 163.554 237.958 174.355 223.996C183.64 211.991 188.095 201 187.697 196.348C186.879 186.792 177.793 184.196 177.701 184.173C177.606 184.147 177.528 184.077 177.491 183.986C172.143 170.716 157.367 169.812 157.218 169.803C157.117 169.798 157.025 169.746 156.968 169.663C156.865 169.507 146.533 154.177 134.212 159.087C121.652 164.092 116.465 168.991 108.483 189.874C108.46 189.942 105.679 198.062 95.7928 206.21C89.3578 211.512 88.6927 219.875 90.0796 225.426C91.2679 230.184 93.9777 233.548 97.1499 234.203C98.3751 234.457 99.2344 235.536 99.1947 236.769C99.0515 241.215 100.872 249.427 114.682 254.498C118.1 255.753 123.1 254.016 123.15 253.997C123.184 253.983 123.22 253.978 123.256 253.978Z" fill="#D1D5DB"/>
<path d="M123.256 254.609C123.121 254.609 122.996 254.525 122.954 254.391C122.9 254.225 122.992 254.047 123.158 253.993C132.394 251.034 145.067 240.711 156.232 227.051C167.26 213.561 174.124 200.287 174.146 192.412C174.156 188.664 172.622 186.262 169.586 185.271C165.18 183.833 160.793 183.252 156.547 183.542C156.376 183.554 156.221 183.424 156.208 183.249C156.197 183.076 156.329 182.925 156.503 182.912C160.831 182.615 165.299 183.208 169.783 184.67C173.11 185.756 174.792 188.361 174.78 192.413C174.757 200.427 167.84 213.851 156.724 227.449C145.315 241.406 132.839 251.553 123.352 254.592C123.32 254.604 123.287 254.609 123.256 254.609Z" fill="#D1D5DB"/>
<path d="M147.26 185.148C147.022 185.148 146.763 185.13 146.483 185.093C143.1 184.649 137.781 181.714 136.594 177.362C134.976 171.435 138.839 169.772 138.877 169.757C138.888 169.753 138.901 169.748 138.912 169.744C139.947 169.458 140.848 169.56 141.588 170.049C143.407 171.25 143.827 174.517 144.104 176.678C144.132 176.902 144.16 177.115 144.187 177.312C144.352 178.502 145.695 179.701 146.879 180.759C148.317 182.042 149.674 183.255 148.972 184.452C148.704 184.913 148.118 185.148 147.26 185.148ZM139.105 170.346C138.822 170.472 135.778 171.962 137.206 177.197C138.308 181.232 143.44 184.057 146.567 184.467C147.534 184.594 148.229 184.47 148.424 184.134C148.867 183.382 147.696 182.336 146.456 181.229C145.19 180.098 143.755 178.818 143.559 177.398C143.532 177.199 143.504 176.984 143.476 176.758C143.213 174.711 142.816 171.618 141.238 170.576C140.655 170.19 139.956 170.115 139.105 170.346Z" fill="#D1D5DB"/>
<path d="M148.81 170.122C148.81 170.122 156.499 171.639 161.722 168.363C166.944 165.086 171.836 150.06 174.08 149.498C176.323 148.935 180.885 153.956 180.885 153.956C180.885 153.956 164.936 174.848 167.311 179.909C169.685 184.971 169.685 184.971 169.685 184.971L160.902 185.154C156.41 185.248 152.412 182.336 151.149 178.05L148.81 170.122Z" fill="#D1D5DB"/>
<path d="M77.2852 80.2804C77.6674 86.6894 74.0033 96.1489 62.5932 96.8288C51.7106 97.4766 46.9519 88.5197 46.5697 82.1107C46.1966 75.8438 49.6411 69.5819 58.8332 69.1521C59.0192 69.1439 61.0498 69.6048 61.2374 69.5927C61.3859 69.5832 63.8342 68.8547 63.9809 68.8453C73.2249 68.2936 76.9102 73.984 77.2852 80.2804Z" fill="#D1D5DB"/>
<path d="M60.5515 70.8624C61.439 63.0572 67.1141 60.8012 72.492 59.5784C74.5558 66.4151 68.5555 68.5141 60.5515 70.8624Z" fill="white"/>
<path d="M60.5776 71.2741C60.4717 71.2809 60.367 71.2469 60.2824 71.1781C60.1759 71.0886 60.1206 70.9531 60.1359 70.8149C61.0459 62.8081 66.8441 60.4366 72.3984 59.1728C72.6097 59.124 72.8266 59.2491 72.8904 59.4582C73.542 61.6171 73.4522 63.4102 72.6182 64.9415C70.9285 68.0426 66.406 69.5756 60.668 71.259C60.6386 71.2665 60.6092 71.2721 60.5776 71.2741ZM72.1987 60.0701C66.9672 61.3075 62.0866 63.4772 61.049 70.2815C66.3046 68.7237 70.4084 67.2621 71.8861 64.5473C72.5634 63.306 72.6649 61.8385 72.1987 60.0701Z" fill="#D1D5DB"/>
<path d="M60.9368 70.9507L59.5342 65.5528C59.4226 65.1225 59.6948 64.6859 60.1325 64.5911C60.8021 64.4479 61.4353 64.4053 62.0093 64.5149C62.4983 64.6095 62.8058 65.0996 62.7065 65.5843L61.5888 71.0274C61.3684 71.1955 61.1517 71.1037 60.9368 70.9507Z" fill="#D1D5DB"/>
<path d="M63.4228 69.263C63.2705 69.2728 63.1184 69.1992 63.0366 69.0579C62.9213 68.8596 62.9871 68.6069 63.1867 68.4921C66.4944 66.57 67.777 65.5475 69.7218 63.2829C69.871 63.1083 70.1345 63.0876 70.31 63.2358C70.4855 63.3839 70.506 63.6459 70.3569 63.8205C68.3617 66.144 66.9746 67.2511 63.6076 69.2085C63.5481 69.2401 63.4841 69.2591 63.4228 69.263Z" fill="#D1D5DB"/>
<path d="M25.8362 172.824C33.428 178.5 48.0665 181.663 58.1696 168.147C67.8048 155.255 60.6253 142.114 53.0335 136.439C45.6097 130.891 35.0919 130.053 27.0982 141.038C26.9371 141.26 25.8565 144.138 25.6893 144.36C25.5569 144.535 22.6707 146.962 22.54 147.135C14.3537 158.085 18.3775 167.249 25.8362 172.824Z" fill="#D1D5DB"/>
<path d="M27.8116 144.544C17.4674 139.301 10.0777 144.466 4.20332 150.104C10.9569 158.2 18.4171 152.506 27.8116 144.544Z" fill="white"/>
<path d="M28.2981 144.911C28.3924 144.786 28.4355 144.629 28.4195 144.469C28.3955 144.265 28.2734 144.087 28.0905 143.994C17.4795 138.614 9.84743 143.837 3.77926 149.66C3.54748 149.88 3.52562 150.25 3.73165 150.498C5.86435 153.054 8.14811 154.4 10.7133 154.615C15.9089 155.049 21.4712 150.718 28.2061 145.01C28.2391 144.98 28.27 144.948 28.2981 144.911ZM5.04763 150.142C10.8213 144.696 17.4595 140.441 26.6915 144.686C20.5032 149.901 15.3689 153.774 10.8218 153.392C8.74135 153.219 6.84957 152.153 5.04763 150.142Z" fill="#D1D5DB"/>
<path d="M27.6079 145.091L22.0914 138.979C21.6514 138.492 20.8922 138.473 20.4198 138.936C19.6995 139.645 19.1329 140.391 18.802 141.188C18.5215 141.868 18.8761 142.645 19.5545 142.916L27.1731 145.958C27.5593 145.822 27.6221 145.481 27.6079 145.091Z" fill="#D1D5DB"/>
<path d="M23.5085 146.786C23.6442 146.606 23.6769 146.359 23.5692 146.143C23.4183 145.84 23.0533 145.716 22.7496 145.869C17.6939 148.386 15.3918 149.137 11.0204 149.697C10.684 149.739 10.4446 150.047 10.4848 150.384C10.525 150.72 10.8313 150.958 11.1676 150.916C15.6525 150.343 18.1438 149.531 23.2912 146.969C23.3785 146.922 23.4539 146.858 23.5085 146.786Z" fill="#D1D5DB"/>
<path d="M116.969 232.587C116.545 243.03 109.07 257.756 90.4782 257C72.7458 256.278 66.4957 240.995 66.9196 230.552C67.3352 220.341 73.9336 210.759 88.8925 211.559C89.195 211.576 92.409 212.653 92.7148 212.664C92.957 212.672 97.0412 211.891 97.2804 211.9C112.343 212.51 117.386 222.327 116.969 232.587Z" fill="#D1D5DB"/>
<path d="M91.3967 214.608C94.1045 202.111 103.664 199.38 112.574 198.275C114.804 209.684 104.743 212.108 91.3967 214.608Z" fill="white"/>
<path d="M91.3723 215.28C91.1997 215.273 91.0356 215.201 90.9097 215.076C90.7519 214.914 90.6843 214.685 90.7316 214.464C93.5086 201.643 103.286 198.746 112.488 197.603C112.839 197.558 113.17 197.796 113.239 198.145C113.943 201.748 113.506 204.638 111.906 206.982C108.664 211.73 101.089 213.477 91.5212 215.27C91.4724 215.277 91.4237 215.282 91.3723 215.28ZM112.019 199.023C103.344 200.176 95.0854 202.896 92.2973 213.749C101.064 212.081 107.949 210.381 110.784 206.224C112.083 204.324 112.486 201.964 112.019 199.023Z" fill="#D1D5DB"/>
<path d="M92.007 214.814L90.6138 205.843C90.5031 205.128 91.0149 204.465 91.7394 204.382C92.8473 204.259 93.8798 204.294 94.7916 204.564C95.5684 204.797 95.9867 205.641 95.7468 206.41L93.0507 215.045C92.6663 215.281 92.3303 215.097 92.007 214.814Z" fill="#D1D5DB"/>
<path d="M96.3077 212.485C96.0595 212.476 95.8251 212.332 95.7156 212.09C95.5611 211.75 95.7088 211.352 96.0508 211.198C101.721 208.623 103.965 207.176 107.484 203.824C107.754 203.566 108.184 203.575 108.444 203.844C108.704 204.112 108.695 204.54 108.425 204.798C104.815 208.237 102.388 209.804 96.616 212.427C96.5145 212.469 96.4076 212.489 96.3077 212.485Z" fill="#D1D5DB"/>
</svg>
